General
Complete name                            : Saans - Song - Jab Tak Hai Jaan 1080p FK Mytorrents.mp4
Format                                   : MPEG-4
Format profile                           : Base Media / Version 2
Codec ID                                 : mp42
File size                                : 82.5 MiB
Duration                                 : 2mn 5s
Overall bit rate mode                    : Variable
Overall bit rate                         : 5 497 Kbps
Encoded date                             : UTC 2012-10-15 07:30:52
Tagged date                              : UTC 2012-10-15 07:54:27
Writing application                      : HandBrake 0.9.5 2011010300

Video
ID                                       : 1
Format                                   : AVC
Format/Info                              : Advanced Video Codec
Format profile                           : Main@L4.0
Format settings, CABAC                   : Yes
Format settings, ReFrames                : 4 frames
Codec ID                                 : avc1
Codec ID/Info                            : Advanced Video Coding
Duration                                 : 2mn 5s
Bit rate mode                            : Variable
Bit rate                                 : 5 291 Kbps
Width                                    : 1 920 pixels
Height                                   : 816 pixels
Display aspect ratio                     : 2.35:1
Frame rate mode                          : Constant
Frame rate                               : 24.000 fps
Color space                              : YUV
Chroma subsampling                       : 4:2:0
Bit depth                                : 8 bits
Scan type                                : Progressive
Bits/(Pixel*Frame)                       : 0.141
Stream size                              : 77.9 MiB (94%)
Writing library                          : x264 core 112

Encoded date                             : UTC 2012-10-15 07:30:52
Tagged date                              : UTC 2012-10-15 07:54:26
Color primaries                          : BT.709
Transfer characteristics                 : BT.709
Matrix coefficients                      : BT.709

Audio
ID                                       : 2
Format                                   : AAC
Format/Info                              : Advanced Audio Codec
Format profile                           : LC
Codec ID                                 : 40
Duration                                 : 2mn 5s
Bit rate mode                            : Variable
Bit rate                                 : 302 Kbps
Maximum bit rate                         : 349 Kbps
Channel(s)                               : 2 channels
Channel positions                        : Front: L R
Sampling rate                            : 44.1 KHz
Compression mode                         : Lossy
Delay relative to video                  : 83ms
Stream size                              : 4.53 MiB (5%)
Encoded date                             : UTC 2012-10-15 07:30:52
Tagged date                              : UTC 2012-10-15 07:54:26

PLEASE LIKE US ON FACEBOOK FOR MORE UPLOADS AND TORRENTS


PLEASE COMMENT AND SEED AFTER DOWNLOADING :)